<?xml version="1.0" encoding="UTF-8"?>
<!-- Generator: Adobe Illustrator 28.0.0, SVG Export Plug-In . SVG Version: 6.00 Build 0)  -->
<svg version="1.1" id="Layer_1" xmlns="http://www.w3.org/2000/svg" xmlns:xlink="http://www.w3.org/1999/xlink" x="0px" y="0px" viewBox="0 0 755.5 454.5" style="enable-background:new 0 0 755.5 454.5;" xml:space="preserve">
<style type="text/css">
	.st0{fill:#F7F3ED;}
</style>
<path class="st0" d="M755,191.7h-8.6V99.7h8.7v-1.1h-8.7v-0.2c0-0.3-0.2-0.5-0.5-0.5s-0.5,0.2-0.5,0.5v24.7h-36.1v1.1h36.1v68  c0,0.3,0.2,0.5,0.5,0.5h9.2c0.3,0,0.5-0.2,0.5-0.5S755.3,191.7,755,191.7L755,191.7z"/>
<polygon class="st0" points="642.2,99.9 642.6,99.9 642.6,36.8 752.6,36.8 752.6,93.1 753.7,93.1 753.7,36.8 753.9,36.8 753.9,35.8   753.7,35.8 753.7,35.6 752.6,35.6 752.6,35.8 642.6,35.8 642.6,35.6 641.5,35.6 641.5,35.8 641.2,35.8 641.2,36.8 641.5,36.8   641.5,99 573.2,99 573.2,100.1 642.2,100.1 "/>
<path class="st0" d="M554.4,123.4c-0.1,0.1-0.4,0.2-0.4,0.2c0,0.3,0,0.7,0.1,0.8c1.8,0.8,3.6,1.5,5.5,2.1c1.9,0.6,3.8,1.1,5.6,1.7  c0.8,0.3,1.7,0.8,2.4,1.3c0.2,0.2,0.3,0.9,0.1,1.2c-0.5,1.2-1.8,1.5-2.8,2.2c-0.7,0.5-1,1.1-0.8,2c0.2,1.3,1,2,2.2,1.8  c3.1-0.6,6.2-1.3,9.3-2c0.3-0.1,0.6-0.2,0.9-0.3c2.1-0.8,2.6-3.4,1.1-4.8c-1.9-1.8-3.3-3.9-5.6-5.3c-1.8-1.1-2.6-0.9-3.3,1.2  c-0.1,0.3,0,0.7-0.2,0.9c-0.3,0.3-0.7,0.6-1.1,0.6c-0.4,0.1-0.9,0-1.3-0.2c-3.6-1.8-7.6-2-11.3-3.4  C554.7,123.3,554.6,123.4,554.4,123.4L554.4,123.4z"/>
<path class="st0" d="M754.6,197.8h-1.1V254H644.6v-61.2h9.4v-1.1h-10v0.5h-0.5v62.5h0.6v0.5h100.5v124.9h-44.1v-79.2h-0.5v-0.3  h-60.4V181.1l0,0v-1l0,0V161h11v12.9h1.1v-33.1h0.2v-1.1h-0.2v-0.1h-1.1v0.1h-77.9v1.1h5.6V160h-20v1h20v19.1h-20v1h20v19h-20v1h20  v19h-20v1h20v19.1h-20v1h20v19h-20.2v-122h-1.1v241.7h-96.6V265.2h-1.1v114.7H164.5v1.1h294.9v0.2h1.1V381h96.6v0.6h1.1V381h141.4  v0.2h1.1V381h44.1v0.2h1.1V381h0v-1.1h0V255h7.7v0.2h1.1V255h0.1V254h-0.1L754.6,197.8L754.6,197.8z M699.5,301.4v19h-19.6v-19  H699.5z M587.9,264.9c0.7,0.6,1.4,0.4,2.3-0.4c-0.6-0.2-1.1-0.4-1.6-0.6c0-1,0.2-2,0.6-2.7h4.3c0,0,0,0,0,0c-0.3,0.7-0.9,1.3-1.3,2  c-0.4,0.7-1.1,1.4-0.3,2.6c1.6-0.5,2.1-1.8,2.6-3c0.2-0.5,0.4-1.1,0.7-1.6h3.3v19H582c0.6-0.8,0.9-1.8,0.7-2.6  c-0.4-1.5-0.9-2.9-1.6-4.2c-0.4-0.9-1-1.5-1.7-1.9v-10.2h8.9c-0.3,0.5-0.6,1-0.9,1.5C587,263.5,587.2,264.3,587.9,264.9L587.9,264.9  z M618.6,160h-19.1v-19.2h19.1V160z M619.6,140.7h19.1V160h-19.1V140.7z M618.6,161v19.1h-19.1V161H618.6z M618.6,181.1v19h-19.1  v-19H618.6z M618.6,201.1v19h-19.1v-19H618.6z M638.7,280.2h-6.1c0.2-0.4,0.3-0.9,0.5-1.3c0.6-1.6,0.3-2.8-0.8-3.9  c-0.6-0.6-1.1-1.2-1.7-1.9c0.4-0.5,0.7-1,1-1.3c0.4-0.5,0.8-0.9,1.1-1.3c0.8-1.3,0.7-2.5-0.3-3.3c-2.5-1.8-7.3-0.8-8.9,1.9  c-0.3,0.5-0.6,1,0.3,1.5c0.3-0.3,0.6-0.7,0.9-1c1.2-1.8,4.2-2.8,6.1-2c1.4,0.6,1.6,1.2,0.8,2.5c-0.8,1.2-1.8,2.1-3.1,2.6  c-0.4,0.1-0.8,0.5-1.4,0.9c1.4,0.5,2.6,0.8,3.7,1.4c1.5,0.9,1.6,1.5,1,2.9c-0.2-0.1-0.5-0.2-0.7-0.4c-1.9-1-4.5,0.7-4.4,2.8  c0,0,0,0,0,0h-7v-11.8c0.4-0.3,0.9-0.7,1.3-1.1c2.2-2.3,2-4.2-1-5.5c-0.1,0-0.2-0.1-0.3-0.1v-0.4h19.1L638.7,280.2L638.7,280.2z   M628.3,281.9c0.7,0,1.4-0.1,2.3-0.1c-1.4,1.8-2.9,3.1-4.8,4c-1.1-2.6-2.2-3.2-5-3c-0.4,0-0.8,0.1-1.2,0.1v-1.5h7.4  C627.3,281.6,627.7,281.9,628.3,281.9L628.3,281.9z M658.8,340.4h-19v-19h19V340.4z M659.8,321.4h19.1v19h-19.1V321.4z M638.7,340.4  h-19.1v-19h19.1V340.4z M618.6,340.4h-19.1v-19h19.1V340.4z M619.6,320.4v-19h19.1v19H619.6z M618.6,320.4h-19.1v-19h19.1V320.4z   M599.5,300.4V294c0.8,1.6,2.4,2.5,4.8,2.5c5.2,0.1,10-1.4,14.3-4.1v7.9L599.5,300.4L599.5,300.4z M604,295.5  c-3.1,0.1-4.8-2.7-3.7-5.6c0.5-1.4,1.4-2.7,2.1-4c0.3-0.6,0.8-1.1,1.1-1.7c-0.1-0.1-0.2-0.2-0.3-0.3c-0.3,0.1-0.7,0.2-0.9,0.4  c-1.4,1.2-2.3,2.7-2.9,4.4v-7.4h2.4c0,0.4,0.2,0.8,0.7,1.1c1,0.6,1.6-0.1,2.3-0.9c-0.2-0.1-0.3-0.1-0.5-0.2h2.9  c-0.1,0.2-0.1,0.3-0.2,0.5c-0.1,0.3,0.1,1,0.3,1.1c0.3,0.1,1,0,1.1-0.2c0.3-0.4,0.6-0.9,0.8-1.4h7.8c-0.7,1.2-1.7,2.1-2.9,2.9  c-0.9,0.6-1.9,1-2.8,1.7c-0.5,0.4-0.9,1-1.3,1.5c1,0.9,1.7,0.5,2.4,0.1c0.6-0.4,1.1-0.9,1.7-1.3c1.2-0.9,1.5-1,2.6,0.1  c0.5,0.6,1.2,1.1,1.8,1.4v3.8C614.3,294.3,609.3,295.4,604,295.5L604,295.5z M618.6,261.4c-0.4,0-0.8-0.1-1.2-0.1h1.2V261.4z   M609.8,262.1c-1.2,0.8-2.3,1.7-3.3,2.7c-0.6,0.5-1,1.3-0.3,2.1c0.8,0.8,1.6,0.4,2.3,0c1.3-0.8,2.3-1.9,3.1-3.3  c0.3-0.6,0.9-1.3,1.4-1.5c1.9-0.5,3.8-0.4,5.7,0.3v5.3c-2,1.3-4.7,2.1-6.6,1.5c-0.8-0.2-1.5-0.6-2.3-0.9c0.5,1.6,1.5,2.3,3.2,2.2  c2.1-0.1,4-0.5,5.8-1.5v7.5c-0.7-0.9-1.9-1.4-3.1-1.3c-0.8,0-1.6,0.2-2.3,0.6c-1.3,0.6-2.5,1.4-3.8,2.2c-0.4-0.4-0.8-0.8-1.2-1.1  c-1.7-1.5-3.8-1.3-5,0.7c-0.5,0.8-0.8,1.9-1.1,2.8c0,0,0,0,0,0h-2.6v-19h11.2C610.5,261.6,610.2,261.8,609.8,262.1L609.8,262.1z   M610.2,263.2c-0.6,1.3-1.1,2.2-2.7,2.6C607.9,264.2,608.8,263.7,610.2,263.2z M619.6,262.8c0.2,0.1,0.4,0.2,0.7,0.3  c1.1,0.6,1.1,1.4,0.4,2.5c-0.3,0.4-0.6,0.9-1.1,1.2V262.8L619.6,262.8z M617.6,282.9c0.3-0.6,0.6-1.2,0.9-1.6h0.1v1.6  C618.3,282.8,618,282.9,617.6,282.9L617.6,282.9z M618.6,283.8v2.5c-0.6-0.4-1.1-1-1.6-1.8C617.5,284.2,618.1,284,618.6,283.8z   M603.2,280.2c0-1.1,0.6-1.9,1.2-2.6c0.7-0.9,1.8-1,2.7-0.4c1,0.7,1.3,1.7,0.8,2.8c0,0.1-0.1,0.2-0.1,0.2L603.2,280.2L603.2,280.2z   M617.6,280.2h-8c0.9-2.6,4-4.4,6.7-3.7c1.5,0.4,2,1.2,1.6,2.7C617.9,279.6,617.8,279.9,617.6,280.2L617.6,280.2z M619.6,287.9  c0.4,0.1,0.9,0.2,1.4,0.2c0.2,0,0.5,0.2,0.7,0.4c-0.1,0.3-0.2,0.4-0.2,0.5c-0.6,0.6-1.2,1.1-1.8,1.6L619.6,287.9L619.6,287.9z   M619.6,286.9v-3.3c0.9-0.1,1.8-0.1,2.7,0c0.8,0.1,1.6,0.3,1.7,1.4c0,1-0.6,1.6-1.5,1.9C621.5,287.3,620.5,287.3,619.6,286.9  L619.6,286.9z M628.1,280.2c-0.2-0.8,0.1-1.4,0.6-1.8c0.5-0.4,1.1-0.7,1.7-0.1c0.5,0.5,0.4,1.4-0.3,1.8c0,0-0.1,0-0.1,0.1H628.1z   M619.6,260.2v-19h19.1v19H619.6z M638.7,240.2h-19.1v-19.1h19.1V240.2z M638.7,220.1h-19.1v-19h19.1V220.1z M618.6,221.1v19.1  h-11.5c-0.3-1.2-0.8-2.4-1.3-3.6c-0.8-1.9-2.2-2.5-4-2.1c-0.3,0.1-0.6,0.1-0.8,0.2c-0.7,0.2-1.2,0.6-1.5,1.1v-14.7L618.6,221.1  L618.6,221.1z M602,240.2c-0.5-0.1-0.9-0.3-1.3-0.6c-1.2-0.8-1.1-2.7,0.2-3.4c0.6-0.3,1.3-0.4,1.7-0.5c1.2,0,1.5,0.2,1.8,1.1  c0.2,0.7,0.4,1.4,0.6,2.1c0.1,0.6,0,1-0.4,1.2H602z M599.5,240.2C599.5,240.2,599.5,240.2,599.5,240.2L599.5,240.2L599.5,240.2z   M601.1,241.2c0.7,0.2,1.5,0.4,2.2,0.5c0.6,0.1,1.2-0.1,1.6-0.5h1.2c0,0.1,0,0.1,0,0.2c0.1,1,0.2,1.9,0.2,2.9c0,1.2-0.6,2-1.7,2.5  c-1.4,0.6-2.7,0.5-4.1-0.1c-0.3-0.1-0.5-0.3-0.7-0.4c-0.2-0.1-0.5,0-0.6,0.1v-5.2H601.1L601.1,241.2z M599.5,247.4  c0.3,0.6,0.9,0.8,1.4,0.9c0.5,0.1,1.1,0.1,1.8,0.2c0.1,0,0.3,0,0.4,0c2.7,0.4,5.4-2.4,4.7-5.7c-0.1-0.5-0.2-1-0.3-1.5h11.2v19h-6.4  c-0.1-0.1-0.1-0.2-0.2-0.2c-2.2-3.6-5.2-4.8-9.4-3.8c-1.1,0.3-2.2,0.6-3.2,1.1L599.5,247.4L599.5,247.4z M608.3,257.6  c0.8,0.3,1.5,0.9,2,1.6c0.3,0.4,0.5,0.8,0.6,1.1h-11.4v-2.1C602.4,256.9,605.8,256.6,608.3,257.6L608.3,257.6z M598.5,260.2H596  c0.7-0.6,1.5-1.2,2.4-1.7V260.2z M589.7,260.2c0.3-0.4,0.7-0.8,1.1-1c0.7-0.5,1.3-0.6,2,0c0.4,0.3,0.6,0.7,0.7,1.1H589.7z   M579.3,280.2v-3.6c1,0.3,1.8,0.9,1.9,1.6c0.2,0.9-0.2,1.5-0.7,2L579.3,280.2L579.3,280.2z M580.4,275.3c-0.4,0.1-0.7,0.2-1.1,0.3  v-2.8C580,273.3,580.4,274.2,580.4,275.3z M578.3,275.8c-1.4,0.3-2.8,0.7-4.2,1c-0.7-1.6,0-2.8,1.1-3.8c0.8-0.8,1.8-1.5,3.1-0.9  c0,0,0,0,0,0L578.3,275.8L578.3,275.8z M574.8,279.9c-0.7-0.9-0.7-1.6,0.4-2.1c1-0.5,2.1-0.8,3.1-1.1v3.6h-3.2  C575,280.1,574.9,280,574.8,279.9L574.8,279.9z M578.2,281.2c-0.2,0-0.4,0-0.5,0H578.2z M574.7,281.2c1,0.8,2.3,1.1,3.7,1v7.6  c-2.1,0.8-4.2,1.1-6.4,0.2c-1.3-0.5-2.2-1.4-2.6-2.8c-0.5-2,0.3-4.4,1.8-6H574.7L574.7,281.2z M572.2,280.2c0.3-0.2,0.6-0.4,0.9-0.6  c0.2,0.2,0.4,0.4,0.6,0.6c0,0,0,0,0,0H572.2L572.2,280.2z M579.3,295.9c0.6,0.4,1.3,0.7,2.3,0.8c0.9,0.1,1.9,0,2.8-0.1  c4.1-0.7,7.3-2.9,10.1-5.9c0.7-0.7,1-1.7,1.3-2.7c0.1-0.3-0.3-0.7-0.4-1c-0.9,1.4-1.6,3-2.7,4c-1.5,1.4-3.2,2.5-5,3.4  c-1.5,0.8-3.2,1.2-4.9,1.5c-1.8,0.3-3.1-0.7-3.4-2c-0.3-1.5,0.3-2.8,1.8-3.7c1.5-0.9,3-2,4.4-3.1c0.4-0.3,0.7-1.2,0.5-1.7  c-0.2-0.8-1.1-1-1.8-0.7c-0.8,0.4-1.7,0.8-2.4,1.4c-0.8,0.6-1.3,1.5-2,2.3c-0.2,0.3-0.5,0.6-0.7,0.8V282c0.6-0.1,1.2-0.4,1.6-0.8  h17.5v19.1h-19.1L579.3,295.9L579.3,295.9z M582.5,287.3c0.6-0.4,1.2-0.8,1.7-1.1c0.1,0.1,0.2,0.3,0.3,0.4c-0.5,0.4-1.1,0.8-1.6,1.2  C582.8,287.7,582.7,287.5,582.5,287.3L582.5,287.3z M598.5,301.3v19h-19.1v-19H598.5z M598.5,321.3v19h-19.1v-19H598.5z   M598.5,341.3v19.1h-19.1v-19.1H598.5z M599.5,341.3h19.1v19.1h-19.1V341.3z M619.6,341.3h19.1v19.1h-19.1V341.3z M639.7,341.3h19  v19.1h-19V341.3z M659.8,341.3h19.1v19.1h-19.1V341.3z M679.9,341.3h19.6v19.1h-19.6V341.3z M679.9,340.3v-19h19.6v19H679.9z   M678.9,301.3v19h-19.1v-19H678.9z M658.8,301.3v19h-19v-19H658.8z M619.6,300.3v-8.5c3.3-2.2,5.8-5.3,9.5-7  c1.6-0.7,2.5-2.1,3.2-3.6h6.5v19.1L619.6,300.3L619.6,300.3z M638.7,200.1h-19.1v-19h19.1V200.1z M638.7,180.1h-19.1V161h19.1V180.1  z M650.7,160h-11v-19.2h11V160z M579.3,140.7h19.1V160h-19.1V140.7z M579.3,161h19.1v19.1h-19.1V161z M579.3,181.1h19.1v19h-19.1  V181.1z M579.3,201.1h19.1v19h-19.1V201.1z M579.3,221.1h19.1v19.1h-19.1V221.1z M579.3,241.2h19.1v16.5c-1.2,0.6-2.4,1.2-3.5,2  c-0.3-0.4-0.6-0.7-0.9-1c-1.4-1.4-2.6-1.5-3.9-0.1c-0.5,0.5-0.9,1.1-1.2,1.6h-9.5L579.3,241.2L579.3,241.2z M578.3,261.2v9.8  c-1.3-0.3-2.7,0.1-4,1.2c-1.2,1.1-1.9,2.5-1.8,4c0,1.2-0.5,2-1.1,2.9c-0.3,0.4-0.5,0.7-0.8,1.1h-12.5v-19L578.3,261.2L578.3,261.2z   M558.2,379.9v-98.7H570c-0.6,0.9-1.1,1.9-1.5,2.9c-1.3,3.4,0.6,6.7,4.3,7.3c1.1,0.2,2.3,0,3.4,0c0.7,0,1.3-0.1,2.2-0.2  c-0.1,0.7-0.1,1-0.2,1.4c0,0.8,0,1.4,0.2,2v5.9h-20v1h20v19h-20v1h20v19h-20v1h20v19.1h-20v1h20v18.4h1v-18.4h19.1v18.4h1v-18.4  h19.1v18.4h1v-18.4h19.1v18.4h1v-18.4h19v18.4h1v-18.4h19.1v18.4h1v-18.4h19.6v18.4L558.2,379.9L558.2,379.9z"/>
<polygon class="st0" points="704.8,124.2 704.8,123.1 663.3,123.1 663.3,123.6 662.7,123.6 662.7,168.4 662.8,168.4 662.8,192.8   663.8,192.8 663.8,167 663.8,167 663.8,124.2 "/>
<path class="st0" d="M110.7,382.2c0-0.4-0.1-0.9-0.3-1.3c-0.3-1-1.4-1.4-2.1-0.5c-1.6,2-3.4,3.7-5.6,4.9c-0.1,0-0.2,0.1-0.5,0.4  c-0.2,0.2-0.6,0.6-1,1c-0.1,0.1-0.2,0.5-0.1,0.6c0.2,0.2,0.5,0.5,0.7,0.5c1.4,0,2.7-0.1,4.1-0.2c0.2,0,0.5,0.2,0.5,0.3  c0.1,0.3,0.1,0.8-0.1,0.9c-1.3,0.8-1.6,2.1-1.9,3.4c-0.2,0.6-0.6,1.2-1,1.8c-0.5,0.9-1.2,1.7-1.6,2.6c-0.2,0.5-0.3,1.1-0.4,1.6  c-0.1,0.7,0.7,1.3,1.3,1.2c1.2-0.2,2.1-0.8,2.7-1.9c0.7-1.2,1.2-2.4,1.8-3.6s1.2-2.5,1.8-3.7c0.2-0.5,0.8-0.5,1.2-0.3  c0.7,0.4,1.3,0.9,2,1.2c0.2,0.1,0.5,0,0.6-0.1c0.1-0.1,0.2-0.4,0.2-0.6c-0.1-0.3-0.1-0.7-0.3-1C111.4,387.3,110.6,384.9,110.7,382.2  L110.7,382.2z"/>
<path class="st0" d="M262.6,248.9h-96.9v-46.6h-1.1v46.6l0,0v5.8h1.1v-4.7h239.2v0.2h1.1v-0.2h53.3v-1.1H406V138.5h40.8v-1.1H406  v-0.2h-1.1v0.2H295.5v1.1h109.4v17.6h-19.5v-17.5h-1v17.5h-19.1v-17.5h-1v17.5h-19.1v-17.5h-1v17.5h-19.3v-17.5h-1v17.5h-19.1v-17.5  h-1v17.5h-19.1v-16.7c0.2,0.5,1.2,0.8,1.6,0.6c0.3-0.1,0.6-0.3,0.8-0.4c3-2.3,6.1-4.6,9.1-6.9c1.6-1.2,1.6-2.6,0.3-4.1  c-0.8-0.8-1.6-1.6-2.5-2.2c-1.8-1-3.7-1.8-5.6-2.7c-0.6-0.3-1.2-0.4-1.8-0.6c-0.9-0.2-1.8,0.2-1.9,0.9c-0.1,0.7,0.2,1.3,0.8,1.6  c1.1,0.6,2.2,1.1,3.4,1.7c0.1,0.1,0.1,0.3,0.1,0.4c0,0.1-0.1,0.4-0.2,0.4c-0.5,0.1-0.9,0.3-1.4,0.4c-3.3,0.1-6.7,0.3-10,0.4  c-1.9,0.1-3.9,0.1-5.6,1c-0.5,0.2-0.9,0.9-0.9,1.5c0,0.6,0.5,1.2,1.3,1.2c1.9-0.1,3.8-0.2,5.3-0.3c1.2,0.1,2.1,0.3,2.8,0.1  c2.7-0.7,5.4,0.2,8.1,0.1c0.4,0,1,0.4,1,0.7c0.1,0.4-0.2,0.9-0.5,1.2c-0.9,0.9-2,1.6-3,2.4c-0.3,0.2-0.5,0.5-0.8,0.8h-69.9v-0.2H214  v0.2h-14.1v-0.2h-1.1v0.2h-34.7v1.1h0.4v55.7H160v1.1h102.6L262.6,248.9L262.6,248.9z M242.7,160.6c-0.3,0-0.7,0.1-1,0.2  c-1.5,0.6-2.9,1.3-4.4,1.9c-1.1,0.5-1.5,1.5-1.5,2.6c0,1.1,1.1,1.1,1.9,1.4c0.4,0.2,0.7,0.2,1.1,0.4c1.1,0.5,2.2,1.1,3.2,1.7  c0.4,0.2,0.6,0.4,0.7,0.6v1.1c0,0.1-0.1,0.2-0.1,0.3c-0.3,0.6-0.8,1.2-1.4,1.5c-1.4,0.7-2.7,1.4-4.4,1.2c-1-0.1-2.1-0.2-3.2-0.2  c-0.3,0-0.9,0.1-0.9,0.4c0,0.4,0.3,0.7,0.6,0.9c0.4,0.2,1,0.4,1.5,0.4c1,0,2,0.2,3,0.1c1.8-0.1,3.4-0.8,4.8-1.7v2.7h-18.8v-19.1  h18.8L242.7,160.6L242.7,160.6z M242.7,162.6v4.8c-0.1-0.1-0.1-0.1-0.2-0.2c-1.3-1-2.8-1.6-4.3-2c-0.2-0.1-0.5-0.4-0.5-0.4  c0.2-0.2,0.2-0.6,0.4-0.7C239.6,163.4,241.1,162.7,242.7,162.6L242.7,162.6z M243.7,172.4c0.3-0.6,0.4-1.3,0.7-1.9  c0.4-0.8,0.2-1.5-0.4-2.1c-0.1-0.1-0.2-0.2-0.4-0.3v-5.6c0.7,0,1.4,0.1,2.1,0.4c0.2,0.1,0.5,0,0.7,0c0.2-0.1,0.4-0.2,0.5-0.4  c0-0.2-0.1-0.5-0.3-0.6c-1-0.4-1.9-1.1-3-1.3v-3.6h18.9v19.1h-18.9L243.7,172.4L243.7,172.4z M404.9,236.3h-19.5v-19.1h19.5V236.3z   M263.8,217.2h19.8v19.1h-19.8V217.2z M284.6,217.2h19.1v19.1h-19.1V217.2z M304.7,217.2h19.1v19.1h-19.1V217.2z M324.9,217.2h19.3  v19.1h-19.3V217.2z M345.2,217.2h19.1v19.1h-19.1V217.2z M345.2,216.2V201c0-0.1,0.1-0.1,0.1-0.2c0.5-1.1,1-2.2,1.5-3.4  c0-0.1,0.1-0.1,0.1-0.2h17.4v19L345.2,216.2L345.2,216.2z M345.2,195.3v-6.7c0.3,0,0.6,0,1-0.1h1.2c0.2,0,0.5,0,0.7,0  c1,0.1,1.3,0.4,0.9,1.3c-0.6,1.3-1.4,2.6-2,3.9C346.5,194.5,346,195,345.2,195.3L345.2,195.3z M344.2,197.2v2.5  c-0.1,0.3-0.2,0.5-0.2,0.8c0,0.1,0.1,0.3,0.2,0.5v15.2h-19.3v-19L344.2,197.2L344.2,197.2z M323.9,216.2h-19.1v-19h19.1V216.2z   M303.7,216.2h-19.1v-19h19.1V216.2z M283.6,216.2h-19.8v-19h19.8V216.2z M263.8,237.3h19.8v11.5h-19.8V237.3z M284.6,237.3h19.1  v11.5h-19.1V237.3z M304.7,237.3h19.1v11.5h-19.1V237.3z M324.9,237.3h19.3v11.5h-19.3V237.3z M345.2,237.3h19.1v11.5h-19.1V237.3z   M365.3,237.3h19.1v11.5h-19.1V237.3z M365.3,236.3v-19.1h19.1v19.1H365.3z M404.9,216.2h-19.5v-19h19.5V216.2z M384.4,216.2h-19.1  v-19h19.1V216.2z M365.3,196.2v-19h19.1v19H365.3z M364.3,196.2h-16.1c0.1,0,0.2-0.1,0.4-0.1c0.6-0.1,1.2-0.2,1.8-0.4  c0.1,0,0.2-0.2,0.2-0.4c0-0.2-0.2-0.4-0.3-0.5c-0.2-0.1-0.5-0.1-0.7-0.1c-1.3-0.2-1.3-0.2-0.8-1.4c0.9-1.7,1.8-3.4,2.6-5.1  c0.4-0.7,0-1.3-0.7-1.3c-1.9,0-3.7,0-5.5,0.1v-9.9h19.1L364.3,196.2L364.3,196.2z M344.2,187.1c-0.4,0-0.7,0-1.1,0  c-1.3,0-2.6,0.2-3.9,0.2c-0.3,0-0.6,0-0.9,0.1c-0.2,0-0.5,0.3-0.5,0.4c0.1,0.2,0.2,0.7,0.4,0.7c0.7,0.2,1.3,0.4,2,0.4  c1.3,0,2.6-0.1,4-0.2v6.8c-0.8,0.1-1.5,0.3-2.3,0.6c0,0-0.1,0.1-0.2,0.2h-16.9v-19h19.3L344.2,187.1L344.2,187.1z M323.8,196.2  h-19.1v-19h19.1V196.2z M303.7,196.2h-19.1v-19h19.1V196.2z M283.6,196.2h-19.8v-19h19.8V196.2z M263.8,176.2V157h19.8v19.1H263.8z   M385.4,248.8v-11.5h19.5v11.5H385.4z M404.9,157v39.1h-19.5v-19h19.2v-1h-19.2V157H404.9z M384.4,157v19.1h-19.1V157H384.4z   M364.3,157v19.1h-19.1V157H364.3z M344.2,157v19.1h-19.3V157H344.2z M323.8,157v19.1h-19.1V157H323.8z M303.7,157v19.1h-19.1V157  H303.7z M263.8,156v-17.6h20.7c0,0,0,0.1,0,0.1h-0.9V156H263.8L263.8,156z M262.7,138.5v0.1h-0.1V156h-18.9v-17.5h-1V156h-18.8  v-17.4h-1V156h-7.7v1h7.7v19.1h-7.9v-37.7L262.7,138.5L262.7,138.5z M165.7,194.2v-55.7h33.2v55.6h1.1v-55.6H214v55.6h1.1v-16.9h7.9  v16.9h1v-16.9h18.8V194h1v-16.8h18.9v17H165.7L165.7,194.2z"/>
<rect x="61.3" y="194.2" class="st0" width="3.7" height="1.1"/>
<path class="st0" d="M232.2,291.2h-67.9v-0.3h-1.1v44.6h-16.5V137h-1.1v57.2h-10.8v-7.4h10.5v-1h-10.5v-19h10.5v-1h-10.5v-19h10.5  v-1h-10.5v-19.1h10.5v-1h-10.5v-19h10.5v-1h-10.5v-19h10.5v-1h-10.5V66.6h10.5v-1h-10.5V52.7h10.8v12.6h1.1V52.7h4.6v-1.1h-22.7  V41.1h0.2V40h-0.2v0h-1.1v0H61.3V0.2h-0.5V0H0.4v0.2H0.2v453.2H0v1.1h61.5v-1.1h-0.2v-92.3h84.5v0.2h1.1v-24.7h16.5v44.6h1.1v-88.9  h67.9L232.2,291.2L232.2,291.2z M80.9,261.5h12.8v4.6H80.9V261.5z M93.6,52.7v12.9H80.9V52.7H93.6z M145.7,246.1h-10.8v-19h10.8  V246.1z M114.8,260.4v-13.3h19.1v19h-19.1v-4.6h16.9v-1.1L114.8,260.4L114.8,260.4z M113.8,226.1h-3.1c0.9-1.1,1.7-2.1,2.6-3.1  c0.1-0.1,0.3-0.2,0.5-0.3V226.1z M114.8,223.5c0,0.1,0,0.2,0,0.3c0.1,0.8,0.2,1.6,0.3,2.3h-0.3L114.8,223.5L114.8,223.5z   M113.8,220.3c-1.7,1.9-3.4,3.9-5.1,5.8h-14V207h19.1V220.3z M93.6,226.1H80.9V207h12.8V226.1z M93.6,227.1v19H80.9v-19H93.6z   M94.6,227.1h13.1c-0.4,0.4-0.7,0.8-1.1,1.3c-0.6,0.7-0.7,1.8-1.1,2.7c-0.1,0.2,0.1,0.4,0.2,0.7c0.2,0.1,0.4-0.5,0.6-0.6  c1.1-1.4,2.3-2.7,3.4-4.1h3.9v19H94.6L94.6,227.1L94.6,227.1z M113.8,247.1v13.3H94.6v-13.3H113.8z M114.8,246.1v-19h0.5  c0,0.1,0,0.1,0,0.2c0.1,1,0.4,3.9,0.6,4.9c0.2,0.4,0.5,0.9,0.9,0.9c0.4,0.1,1.3-0.1,1.3-0.3c-0.1-0.6-0.1-0.8-0.2-1  c-0.5-1.1-0.7-2.9-0.8-4.6h16.9v19L114.8,246.1L114.8,246.1z M145.7,226.1h-10.8V207h10.8V226.1z M133.9,226.1H117  c0-0.7-0.1-1.4-0.1-2c-0.1-1.1-0.2-2.2-0.5-3.2c-0.2-1.3-0.8-1.8-1.7-1.4V207h19.1V226.1L133.9,226.1z M114.8,206v-10.7h19.1V206  H114.8z M113.8,206H94.6v-10.7h19.1V206z M94.6,194.2v-7.4h19.1v7.4H94.6z M94.6,185.8v-19h19.1v19H94.6z M93.6,166.8v19H80.9v-19  H93.6z M80.9,165.8v-19h12.8v19H80.9z M94.6,165.8v-19h19.1v19H94.6z M94.6,145.8v-19.1h16.2c0.5,1.2,1.6,2.2,2.9,2.5v16.6  L94.6,145.8L94.6,145.8z M113.8,127.3c-0.4-0.2-0.7-0.4-0.9-0.6h0.9V127.3z M112.3,125.7c-0.1-0.6,0-1.3,0.4-2.1  c0.2-0.5,0.6-0.9,0.8-1.4c0.1-0.2,0.2-0.5,0.3-0.8v4.3H112.3z M111.4,122.5c-0.1,0.2-0.6,0.3-1,0.3c-0.5-0.1-1-0.2-1.6-0.4  c-1-0.4-1.1-0.9-0.6-1.9c0.8-1.3,1.9-2.2,3.2-2.8c1.1-0.5,1.6-0.1,1.7,1.1C112.7,120.1,112.1,121.3,111.4,122.5L111.4,122.5z   M113.8,116.3c-0.5-0.4-1.2-0.4-2.1-0.1c-2.2,0.7-4,1.9-4.8,4.3c-0.4,1.3-0.1,2.2,1.1,2.9c0.3,0.2,0.6,0.3,0.8,0.3  c1,0.3,1.4,0.6,1.6,1.8c0,0.1,0,0.2,0.1,0.2H94.6v-19h19.1L113.8,116.3L113.8,116.3z M93.6,86.7v19H80.9v-19H93.6z M80.9,85.7V66.6  h12.8v19.1H80.9z M93.6,106.7v19H80.9v-19H93.6z M94.6,105.7v-19h19.1v19H94.6z M94.6,85.7V66.6h19.1v19.1H94.6z M94.6,65.6V52.7  h19.1v12.9H94.6z M80.9,126.7h12.8v19.1H80.9C80.9,145.8,80.9,126.7,80.9,126.7z M93.6,186.8v7.4H80.9v-7.4H93.6z M93.6,195.3V206  H80.9v-10.7H93.6z M93.6,247.1v13.3H80.9v-13.3H93.6z M94.6,261.5h19.1v4.6H94.6V261.5z M113.8,267.1v18.3H94.6v-18.3H113.8z   M114.8,267.1h19.1v18.3h-19.1V267.1z M134.9,267.1h10.8v18.3h-10.8V267.1z M134.9,266.1v-19h10.8v19H134.9z M145.7,195.3V206h-10.8  v-10.7H145.7z M133.9,194.2h-19.1v-7.4h19.1V194.2z M133.9,185.8h-19.1v-19h19.1V185.8z M133.9,165.8h-19.1v-19h19.1V165.8z   M133.9,145.8h-19.1v-16.4c0.1,0,0.2,0,0.3,0c1.1,0,2.1-0.2,3.2-0.3c0.2,0,0.4-0.4,0.4-0.4c-0.1-0.2-0.3-0.6-0.5-0.6  c-0.4-0.1-0.9-0.1-1.3-0.1c-0.7-0.1-1.4-0.2-2.1-0.3v-0.9h19.1V145.8z M133.9,125.7h-19.1v-19h19.1V125.7z M133.9,105.7h-19.1v-19  h19.1V105.7z M133.9,85.7h-19.1V66.6h19.1V85.7z M133.9,52.7v12.9h-19.1V52.7H133.9z M61.3,41h66.3v10.5H61.3L61.3,41L61.3,41z   M79.9,52.7V66h-0.1v16.9h0.1v37.2h-0.1V137h0.1v57.2h-4.9v1.1h4.9v65.1H61.3V52.7L79.9,52.7L79.9,52.7z M1.3,453.4V1.1h58.8V40  h-0.2v1.1h0.2v10.5h-0.2v1.1h0.2v0.9h0v306.3h0v0.1h-0.2v1.1h0.2v92.3L1.3,453.4L1.3,453.4z M61.3,360v-98.5h18.6v25.6h1v-20h12.8  v18.3H81.3v1h64.4V360L61.3,360L61.3,360z"/>
<polygon class="st0" points="164.6,265.4 164.6,270.2 164.6,270.8 459.3,270.8 459.3,269.7 165.7,269.7 165.7,265.4 "/>
<path class="st0" d="M144,122.4c-0.1,0.8,0.3,1.5,1,1.9c1,0.6,2.3,0.8,2.9,2c0.2,0.3,0.2,1,0,1.2c-0.7,0.6-1.4,1.1-2.2,1.5  c-1.8,0.8-3.7,1.4-5.5,2.2c-1.8,0.8-3.5,1.7-5.3,2.6c-0.1,0.1-0.1,0.5-0.1,0.8c0,0.1,0.2,0.1,0.4,0.2c0.1,0,0.3,0,0.4-0.1  c3.6-1.6,7.6-2.3,11-4.4c0.4-0.2,0.9-0.4,1.3-0.4c0.4,0,0.8,0.3,1.1,0.5c0.2,0.2,0.2,0.6,0.3,0.8c0.9,2,1.6,2.2,3.4,0.9  c2.1-1.6,3.4-3.9,5.1-5.8c1.4-1.6,0.7-4-1.5-4.7c-0.3-0.1-0.6-0.2-0.9-0.2c-3.2-0.4-6.3-0.8-9.5-1.2  C144.9,120.3,144.1,121.2,144,122.4L144,122.4z"/>
<path class="st0" d="M334,47.7c0-0.6,0.1-1.2,0.2-1.8c0-0.2,0-0.4,0.1-0.6c0.3-1.8,1.5-2.9,2.6-4c0.2-0.2,0.5-0.4,0.7-0.6  c1-0.9,2-1.3,3.7-1.2h0.1c0.1,0,0.2,0,0.4,0c0.2,0,0.4-0.1,0.4-0.2c0.1-0.2,0-0.4-0.1-0.5c-0.1-0.2-0.5-0.3-0.8-0.3  c-0.1,0-0.1,0-0.2,0c-1-0.3-2-0.2-2.8,0.3c-0.6,0.3-1.2,0.8-1.8,1.1c-0.1,0.1-0.1,0.1-0.2,0.2c-1.5,1.1-2.6,2.7-3.2,4.5  c-0.4,1.2-0.6,2.5-0.5,3.7h1.5C334,48,334,47.9,334,47.7L334,47.7z"/>
<rect x="145.7" y="82" class="st0" width="1.1" height="38"/>
<polygon class="st0" points="460.7,137.4 460.5,137.4 460.5,137.2 459.4,137.2 459.4,137.4 454.1,137.4 454.1,138.5 459.4,138.5   459.4,254.7 460.5,254.7 460.5,138.5 460.7,138.5 "/>
<path class="st0" d="M335.4,53.1c0.4,0.2,0.8,0.2,1.2,0.2c0.8,0,1.7-0.3,2.5-0.8c0.5-0.3,0.8-0.7,0.9-1.1c0.1-0.4,0-0.9-0.2-1.4  c-0.2-0.3-0.4-0.6-0.7-0.8h-6.5c0.1,0.3,0.1,0.7,0.2,1C333.3,51.6,334.2,52.7,335.4,53.1L335.4,53.1z M335.6,50.5  c0.3-0.2,0.8-0.3,1.3-0.3c0.1,0,0.1,0,0.2,0c0.6,0,1.1,0.2,1.4,0.5l0,0.2c0,0.1,0,0.2-0.1,0.2c-0.4,0.2-0.8,0.3-1.2,0.5  c-0.1,0.1-0.3,0.1-0.4,0.2c-0.1,0-0.3-0.1-0.4-0.1c-0.3-0.1-0.5-0.1-0.7-0.2l0,0c-0.2-0.1-0.3-0.2-0.3-0.4  C335.3,50.8,335.4,50.6,335.6,50.5L335.6,50.5z"/>
<path class="st0" d="M165.9,51.6h-0.2v-2.4h13.9v19.1h-13.9V66h-1.1v54h1.1l96.4,0v0.4h1.1V120h48.6v0.4h1.1V120h47.1v0.4h1.1V120  h49v0.4h1V120h98.4v0.4h1V120h47.9v-0.6h0.2V69.4h-1.1v26.4l-47-0.1V8.9h13.3V28h-13.1v1h13.1v19.1h-13.1v1h46.8v9h1.1V7.6h-1.1v0.2  H361.5V7.6h-1.1v0.2l-48.7,0v0h-48.3V7.6h-1.1v0.2h-47.2V7.6H214v0.2h-48.4V7.6h-1.1v44h-4.5v1.1h5.8L165.9,51.6L165.9,51.6z   M411,119V96.5l48.6,0.1l-0.1,22.2h1.1l0.1-22.2l48.7,0.1V119L411,119L411,119z M411,95.4V8.9h49.2l-0.6,86.6L411,95.4z M557.3,96.9  V119h-47V96.8L557.3,96.9L557.3,96.9z M509.3,95.7l-48.7-0.1L461.2,9h48.1L509.3,95.7L509.3,95.7z M524.6,8.9h19.1V28h-7.7  c0.1-0.2,0.2-0.3,0.4-0.5c0.7-0.8,1-1.9,1.4-2.9c0.4-1,0-1.7-1-2.2c-1.2-0.6-2.5-0.3-3.7,0.1c-1.2,0.5-1.9,1.3-2.1,2.5  c-0.2,1.2,0.7,1.9,1.4,2.5c0.2,0.2,0.4,0.3,0.7,0.5h-8.5C524.6,28,524.6,8.9,524.6,8.9z M535.1,30.3c0.8,1,1.2,2.2,1.4,3.4  c0,0.9-0.4,1.3-1.1,1.4c-0.9,0.1-1.6-0.2-1.7-1.1c-0.1-0.5,0-1.1,0.2-1.7c0.2-0.6,0.5-1.3,0.9-1.9C534.7,30.3,535.1,30.3,535.1,30.3  L535.1,30.3z M532.9,25.7c-0.8-0.9-0.5-1.6,0.6-2c0.5-0.2,1-0.2,1.3-0.2c1.5,0,2,0.6,1.5,1.8c-0.3,0.7-0.9,1.4-1.3,2  C534,27.1,533.5,26.3,532.9,25.7L532.9,25.7z M524.6,29h9.4c-0.1,0.5-0.6,1.1-0.9,1.6c-0.5,1.1-0.9,2.1-0.8,3.3  c0.1,1.5,1.5,2.6,3,2.6c1.5-0.1,2.2-1,2.3-2.6c0-0.2-0.1-0.3-0.1-0.5c-0.1-1.2-0.5-2.4-1.2-3.4c-0.2-0.4-0.4-0.7-0.5-1h7.8v19.1  h-19.1L524.6,29L524.6,29z M544.7,48.2V29h12.6v19.1H544.7z M557.3,28h-12.6V8.9h12.6C557.3,8.9,557.3,28,557.3,28z M361.5,8.9H410  v86.4l-25-0.1v0.1h-23.9L361.5,8.9L361.5,8.9z M361.1,96.5h24v-0.1l24.9,0.1V119h-49L361.1,96.5L361.1,96.5z M165.7,48.2v-19h13.9  v19H165.7z M199.7,29.2v19h-5c-0.5-0.8-1.2-1.4-2.1-1.9c-0.4-0.2-0.8-0.5-1.2-0.7c0.3-0.3,0.7-0.7,1-1c0.3-0.3,0.6-0.6,0.9-0.9  c0.4-0.6,0.6-1.2,0.2-1.9c-0.4-0.8-0.9-1.5-1.8-1.9c-1.1-0.5-2.4-0.6-3.6-0.5c-1.3,0.2-2.6,0.5-3.5,1.6c-0.1,0.1,0,0.6,0.1,0.9  c0.1,0.1,0.6,0.1,0.7,0c0.9-1.3,2.3-1,3.4-1.3c1.2,0.1,2.3,0.2,3,1.2c0.4,0.5,0.4,0.9,0,1.5c-0.8,1-1.7,1.8-2.9,2.2  c-0.5,0.2-1.2,0.2-1.1,1c0.1,0.7,0.8,0.3,1.2,0.4c0.2,0,0.4,0,0.6,0c1.3,0.2,2.3,0.7,3.2,1.5h-12.4v-19  C180.6,29.2,199.7,29.2,199.7,29.2z M180.6,28.2V8.9h19.1v19.2L180.6,28.2L180.6,28.2z M180.6,49.2h13.2c0.5,0.9,0.2,1.5-0.9,1.8  c-1.1,0.2-2.3,0.8-3.6,0.2c-0.2-0.1-0.6-0.1-0.8-0.1c-0.2,0.1-0.4,0.2-0.5,0.3c-0.1,0.2,0,0.4,0.1,0.6c0.2,0.2,0.4,0.3,0.7,0.5  c2.1,1,4,0.3,5.8-0.8c1-0.7,1.1-1.4,0.6-2.4h4.5v19.1h-19.1V49.2L180.6,49.2z M248.3,29.2v10.5c-0.4,0-0.8,0.2-1.4,0.4  c-0.5,0.2-0.9,0.5-1.4,0.7c-2.3,1.1-4.4,2.5-7,3c-0.4,0.1-0.8,0.4-1.1,0.7c-0.8,0.7-0.8,1.7,0,2.3c0.7,0.6,1.7,1,2.5,1.2  c0.4,0.1,0.7,0.1,1.1,0.2h-12v-19H248.3L248.3,29.2z M229.2,28.2V8.9h19.1v19.2L229.2,28.2L229.2,28.2z M248.1,44  c-0.1,0.8-0.1,1.6-0.2,2.4c-0.1,0.7-0.4,1.1-1.2,1c-2-0.2-3.9-0.5-5.9-0.7c-0.4-0.1-0.9-0.2-1.2-0.4c-0.2-0.1-0.4-0.4-0.7-0.5  c0.2-0.1,0.4-0.3,0.7-0.5c2.6-1.2,5.2-2.5,7.8-3.8c0.6-0.3,0.8-0.2,0.8,0.5c0.1,0.7,0,1.3,0,2L248.1,44L248.1,44z M262.1,88.3h-12.8  v-19h12.8L262.1,88.3z M262.2,68.3h-12.8V49.2h12.9L262.2,68.3L262.2,68.3z M247.1,49.2c0,0.3-0.1,0.7-0.4,1.5  c-0.1,0.4-0.3,0.7-0.3,1.1c0.1,0.7,0.2,1.3,0.4,1.9c0.1,0.2,0.6,0.3,0.9,0.5c0.1-0.2,0.2-0.5,0.2-0.7c0.1-0.5-0.1-1.2,0.2-1.7  c0.1-0.1,0.1-0.2,0.1-0.3v16.9h-19.1V49.2L247.1,49.2L247.1,49.2z M228.2,68.3h-13.1V49.2h13.1V68.3z M215.1,69.3h13.1v19h-13.1  V69.3z M229.2,69.3h19.1v19h-19.1V69.3z M248.3,89.3v6.3h-19.1v-6.3H248.3z M249.3,89.3h12.8v6.3h-12.8L249.3,89.3L249.3,89.3z   M262.2,48.2h-12.9c0.2-1.3,0.2-2.7,0.3-4c0-0.8,0.1-1.7,0-2.5c-0.1-0.6-0.1-1.1-0.3-1.4V29.2h12.9L262.2,48.2z M228.2,48.2h-13.1  v-19h13.1V48.2z M214,68.3h-13.3V49.2H214V68.3z M165.7,69.3H214v26.3h-0.2v1.1h0.2V119h-48.4C165.7,119,165.7,69.3,165.7,69.3z   M215.1,119V96.7h4.5v-1.1h-4.5v-6.3h13.1v6.3h-0.9v1.1h34.8l0,22.3C262,119,215.1,119,215.1,119z M359.9,119h-47.1l0-22.3h7v-1.1  h-7v-6.3h13.1v7.1h1v-7.1H346v6.1h-16v1.1h30L359.9,119L359.9,119z M325.9,49.2v19.1h-13.1V49.2H325.9z M312.8,48.2v-19h13.1v19  H312.8z M326.9,49.2h5.7c-0.1-0.3-0.1-0.7-0.1-1h-5.6v-19H346v19h-12c0,0.4,0.1,0.7,0.2,0.8c0.2,0.2,0.6,0.1,1.5-0.1  c0.7-0.1,1.4-0.2,2.2-0.2c0.5,0,0.9,0.2,1.3,0.5h6.9v19.1h-19.1L326.9,49.2L326.9,49.2z M326.9,28.2V8.9H346v19.2L326.9,28.2  L326.9,28.2z M347,68.3V49.2h13.2l-0.1,19.1H347L347,68.3z M360.1,69.3l-0.1,19h-13v-19H360.1L360.1,69.3z M347,48.2v-19h13.3  l-0.1,19H347z M346,69.3v19h-19.1v-19H346z M347,95.4v-6.1h13l0,6.1H347z M360.3,28.1H347V8.9h13.4L360.3,28.1L360.3,28.1z   M325.9,8.9v19.2h-13.1V8.9L325.9,8.9L325.9,8.9z M311.7,8.9v65.4h1.1v-5.1h13.1v19h-13.1v-3.2h-1.1v10.5h-35v1.1h35l0,22.3h-48.6  l0-22.3h4.1v-1.1h-4.1l0.2-86.6L311.7,8.9L311.7,8.9z M262.2,28.2h-12.9V8.9h12.9L262.2,28.2L262.2,28.2z M228.2,8.9v19.2h-13.1V8.9  L228.2,8.9L228.2,8.9z M214,48.2h-13.3v-19H214v-1h-13.2V8.9H214V48.2L214,48.2z M179.6,8.9v19.2h-13.9V8.9L179.6,8.9L179.6,8.9z"/>
<polygon class="st0" points="541.5,270.8 541.5,269.7 476.3,269.7 476.3,265.4 475.2,265.4 475.2,270.2 475.3,270.8 "/>
<polygon class="st0" points="476.3,250.1 476.3,138.5 525.8,138.5 525.8,137.4 475,137.4 475,138.5 475.2,138.5 475.2,250.1 "/>
</svg>